<svg id="Layer_1" data-name="Layer 1" xmlns="http://www.w3.org/2000/svg" viewBox="0 0 881 582">
  <defs>
    <style>
      .cls-2{fill:#33df8e}
    </style>
  </defs>
  <path class="cls-2" d="M-17 299l-2-32-5-109-5-117-4-118-5-117-4-79v-7l31-2L4 188l1 1a20 20 0 001-4l1-57L11 1l3-101 3-104 2-75 1-2h28v33l-2 60-6 141-3 84-6 136-3 83-2 42H-5a27 27 0 00-5 1zM-433-133l22-16v10l5-10c4-8 10-14 17-19s13-3 15 5a66 66 0 012 16v367l-23-11-1-2a31 31 0 010-4v-325a19 19 0 000-5l-2-7-8 4-4 8v323l-23-12v-2a28 28 0 001-5v-308a28 28 0 00-1-5z" transform="translate(433 283)"/>
  <path class="cls-2" d="M-433-131a28 28 0 011 5v308a28 28 0 01-1 5zM-10 299a27 27 0 015-1h31v1zM-179-129l-5 141-4 98-5 129-2 39-27-6c-5-2-11-2-14-5-2-3-1-9-1-14l-5-148-4-104-5-139-4-91c0-4 1-6 5-7l25-9 9 422h1l2-23 4-113 5-120 5-125 2-45c0-3 1-5 4-6 12-2 23-5 35-9l18 452h1a33 33 0 001-4l2-112 3-147 3-140 1-50c0-3 1-5 5-5l25-4-18 564-22-2-18-3c-3-1-4-2-4-5l-3-79-6-140-3-76-4-112v-17h-2zM206-97l-29-4v-6-103a87 87 0 00-1-16 13 13 0 00-4-6c-4-4-8-3-10 1a40 40 0 00-2 13c-1 35 2 69 6 103L182 0l13 96c4 27 9 54 10 81 2 26 3 53-3 80-2 10-6 20-15 27a36 36 0 01-29 9c-8-1-13-6-17-12-6-9-9-20-9-30l-1-56v-81l29-1v114a85 85 0 002 18c0 2 3 5 5 5 3 0 7-2 7-4a52 52 0 003-16 562 562 0 00-4-82l-9-78-14-92-13-96-6-46c-1-28-3-55 3-83a57 57 0 017-17c5-9 14-12 25-11 16 3 26 13 33 27 6 14 7 29 7 44v107zM291 14v-197c0-11 1-21 6-31 4-7 11-10 19-8a38 38 0 019 3c19 9 29 26 33 46a129 129 0 012 23v338c0 14-1 29-9 42-7 14-19 22-35 24-8 1-15-3-18-11s-6-17-6-26l-1-90V14zm27 1v185a80 80 0 000 9c1 3 1 8 6 8s7-2 8-7a56 56 0 002-13v-363l-1-10a25 25 0 00-7-9c-2-3-6-2-7 2a48 48 0 00-1 11V15zM-303 51h27v165a64 64 0 01-4 21c-5 14-16 19-30 14-20-7-30-21-34-40a137 137 0 01-2-27v-329c0-14 1-28 6-41 6-15 16-26 32-32 15-7 28-1 31 17a71 71 0 011 11V31l-44 1v173c0 8 2 13 8 15 5 1 7 0 8-5a36 36 0 001-7V58zm-17-47l11-1c4 0 6-1 6-6v-175a28 28 0 00-1-5c-1-6-3-7-8-4-7 3-8 9-8 15V4zM424 204v-7-315c0-6-1-13-6-17l-6-2-2 5a29 29 0 00-1 6v332c0 4-1 6-4 8l-19 8v-401l21 14c2 1 1 4 1 6v6c4-1 7-4 10-4s7 2 10 4c12 8 17 20 18 35v304c0 4-1 6-4 8l-18 10zM101 294l-29 2v-575l17 1c12 2 12 2 12 13v559zM234 273v-521l26 9 2 3a18 18 0 010 4v492c0 5-1 7-6 8l-22 5z" transform="translate(433 283)"/>
  <path class="cls-2" d="M-179-129v-15h2v17z" transform="translate(433 283)"/>
</svg>
