<svg xmlns="http://www.w3.org/2000/svg" width="70" height="34" viewBox="0 0 859.13 409.49">
  <defs/>
  <defs>
    <style>
      .cls-2{fill:#38f39d}.cls-3{fill:#37f39c}
    </style>
  </defs>
  <g id="Layer_2" data-name="Layer 2">
    <g id="Layer_1-2" data-name="Layer 1">
      <path fill="#d3fce9" d="M858.32 139.86a2.22 2.22 0 01.81 0v173.63h-.96V155.26c-.03-5.12.08-10.26.15-15.4z"/>
      <path d="M278.09 110.34c-5.44 93.87-10.88 187.75-16.37 282.56l-41.41-8.9c-.47-6.86-1-13.46-1.36-20.06-1.44-27.53-2.71-55.06-4.24-82.58-1.8-32.33-3.86-64.64-5.69-97-1.2-21.22-2.14-42.46-3.29-63.68q-1.89-34.56-4-69.12c-.2-3.33.46-5 4.16-5.8 8.5-1.94 16.84-4.57 25.64-7 3.19 98.42 6.35 196.18 9.51 294l.83.05c1-12.8 2-25.58 2.84-38.39q2.55-39.5 4.89-79c1.16-19.73 2.07-39.47 3.27-59.19 1.48-24.52 3.2-49 4.7-73.55.88-14.42 1.56-28.85 2.25-43.28.39-8.39.3-8.43 8.17-10.65 10-2.82 20.07-5.58 30.64-8.52q9.19 162.1 18.37 323.54l.77.05c.26-2.93.68-5.85.76-8.78.47-17.94.76-35.89 1.29-53.83q1.77-59.79 3.69-119.57.62-19.94 1.14-39.86c.76-29.74 1.45-59.48 2.23-89.21.15-5.81.41-11.63.91-17.42.12-1.3 1.25-3.3 2.32-3.62C338.46 9 347 6.86 356.24 4.36c-5.89 135.19-11.76 269.88-17.66 405.13-8.91-1.85-17.45-3.6-26-5.4a126.55 126.55 0 01-12.56-2.94c-1.39-.44-3.15-2.38-3.25-3.74-1.19-16.39-2.07-32.8-3.07-49.21-1.23-20.05-2.52-40.09-3.74-60.14-.78-12.92-1.44-25.86-2.21-38.79-1.24-20.88-2.54-41.75-3.77-62.63-.78-13.26-1.46-26.53-2.23-39.79-.71-12.17-1.48-24.35-2.22-36.52zM448.43 14.9c8.51 2.31 16.06 4.18 23.46 6.52 1.26.4 2.75 2.79 2.7 4.21-.58 15.77-1.36 31.53-2.24 47.28-.82 14.75-1.84 29.49-2.71 44.24-1.3 21.88-2.61 43.76-3.8 65.64-1.16 21.06-2.11 42.13-3.27 63.18s-2.53 42.1-3.71 63.15c-.84 14.76-1.51 29.52-2.26 44.29-.73 14.09-1.51 28.19-2.18 42.29-.16 3.5-1.14 5.55-5.18 6.29-11.07 2-22 4.59-33.56 7.06-.64-9.75-1.38-19.31-1.88-28.88-1.13-21.72-2.07-43.46-3.23-65.18-1.51-28.19-3.17-56.37-4.72-84.55-.78-14.1-1.46-28.2-2.2-42.29q-1.89-36.32-3.79-72.63c-.78-15.1-1.46-30.2-2.21-45.29Q396 36.39 394.24 2.56V0l27.14 7.41Q428 175.7 434.54 343.6h1c4.33-109.34 8.6-218.69 12.89-328.7zM149 238.78h28.76c.09 1.78.25 3.38.25 5v104.74c0 15.9-8 24-23.93 23.89-14.48-.08-27.87-4-39.56-12.77-8-6-12.45-14.22-12.57-24.31-.19-18-.14-35.91-.14-53.87 0-59.35.39-118.71-.23-178-.21-19.14 8.47-31.08 24.76-38.73 10.44-4.89 21.36-8.19 33.14-7.58 11 .57 18.46 7.92 18.48 18.83Q178 148.47 178 221c0 1-.16 1.93-.3 3.61h-46.62c-.14 2.15-.33 3.6-.33 5v109.23c0 7.87 3.66 11.49 11.52 11.62 4.91.09 6.61-1.45 6.65-6.47.08-10.14 0-20.28 0-30.42zm-18.21-31.84l18.21-.8v-84.21-36.87c0-5.46-2.62-7.42-7.94-6.24-7.9 1.75-10.22 4.55-10.23 12.69v100.62zM616.13 150.46c-7.41-.89-14.62-1.84-21.85-2.57-3.18-.32-4-1.8-4-4.87q.18-28.92 0-57.84a30.76 30.76 0 00-1.7-9.69c-1.5-4.27-6.38-7-9.8-6-4.33 1.29-4.12 4.93-4.38 8.49-3 41.85 7.53 81.44 19.49 120.94 7.13 23.56 13.18 47.48 18.77 71.46 5.16 22.15 3.93 44.88 3.71 67.44a44.22 44.22 0 01-1.58 10.77c-4.38 16.62-17.57 27.46-36 29.75-3.12.39-6.32 1-9.4.67-12.08-1.34-19.21-8.54-20.86-21a119.17 119.17 0 01-1-14.87c-.11-20.77 0-41.55 0-62.32v-5.92l26.9-1.57v6q0 32.4.07 64.82c0 6.33 1.84 9.21 5.7 9.53 4.71.39 8.07-2.59 9.41-8.37a12.27 12.27 0 00.64-2.91c-.45-17.75.79-35.76-1.87-53.18-3.41-22.31-9.1-44.4-15.36-66.13-8.54-29.59-17-59.18-22.06-89.55a245.8 245.8 0 01-2.47-67.44c1.71-15.86 9.71-22.68 25.43-20.85 19 2.23 36.27 12.75 41 33a42.32 42.32 0 011.43 9.3c.14 20.11.09 40.22.09 60.33a24.73 24.73 0 01-.31 2.58zM26.39 95.67l.72 8c6.77-9.47 15.47-14.52 25.66-17.21C65.05 83.24 72 88.31 72 100.93q.1 123.44 0 246.89c0 1.13-.19 2.26-.34 4l-26.68-5.71v-6.07V116.1c0-4.19.17-8.35-5.45-8.86-6.08-.55-11.28 3.53-11.64 9-.12 1.82-.08 3.66-.08 5.48v220.69l-27.8-6V331Q.12 219.72 0 108.49c0-4.56 1.34-6.41 5.66-7.34 6.76-1.46 13.39-3.51 20.73-5.48zM696.38 215.31V114.12a81.2 81.2 0 01.8-10.9c1.52-11.09 7.5-16.9 18.61-16.61a62.33 62.33 0 0138.59 14c8.35 6.78 11.58 16 11.58 26.42q.07 91 0 181.94c0 14-6.33 24.26-19 30.12-10.91 5.05-22.25 8.87-34.59 6.5-8.51-1.64-13.72-7.13-15-15.71a78.87 78.87 0 01-1-11.88q-.05-51.35.01-102.69zm26.91.57V316.1a35.35 35.35 0 00.08 4.49c.56 4.57 3.67 6.67 8.11 5.59 5.49-1.34 7.75-4.85 7.75-12.21v-195a20.8 20.8 0 00-.52-5.41c-1.19-4.42-6.44-8.18-10.55-7.43-5.15.94-4.86 5.11-4.86 9q0 50.39-.01 100.75zM858.32 139.86c-.07 5.14-.18 10.28-.18 15.42v158.23l-24.88 5.83v-6.7-171.06c0-7.36-2.4-10.23-9.48-11.48-3.87-.69-6.14.79-6.45 4.81-.11 1.49 0 3 0 4.49 0 58.85-.09 117.69.15 176.54 0 5.46-1.5 7.63-6.77 8.32-6 .8-12 2.34-18.26 3.63V109.61c7.64 2.13 15.12 3.9 22.31 6.47 1.35.48 1.56 4.13 2.39 6.61 9.7-5.55 19.65-3.15 29.4 1.19 6.84 3.06 11.13 8.24 11.77 15.98z" class="cls-2"/>
      <path d="M494.71 392V27.8c5.12 1.35 10 2.56 14.78 3.9 11.18 3.13 11.17 3.16 11.17 14.82q0 166.76.09 333.51c0 4.69-.8 7.19-6.08 7.83-6.53.79-12.94 2.61-19.96 4.14zM642.52 360.24V68.37c8.28 2.27 16.34 4.43 24.33 6.77.77.22 1.48 1.54 1.7 2.48a17.49 17.49 0 01.09 4q0 133.4.13 266.8c0 5-1.41 7-6.29 7.72-6.48.92-12.96 2.61-19.96 4.1z" class="cls-3"/>
    </g>
  </g>
</svg>
